<?xml version="1.0" standalone="no"?>
<!DOCTYPE svg PUBLIC "-//W3C//DTD SVG 20010904//EN"
 "http://www.w3.org/TR/2001/REC-SVG-20010904/DTD/svg10.dtd">
<svg version="1.0" xmlns="http://www.w3.org/2000/svg"
 width="1280.000000pt" height="1056.000000pt" viewBox="0 0 1280.000000 1056.000000"
 preserveAspectRatio="xMidYMid meet">
<metadata>
Created by potrace 1.15, written by Peter Selinger 2001-2017
</metadata>
<g transform="translate(0.000000,1056.000000) scale(0.100000,-0.100000)"
fill="#000000" stroke="none">
<path d="M10832 9360 c-294 -238 -422 -347 -424 -363 -2 -12 1 -83 5 -157 9
-148 2 -534 -14 -755 -121 -1727 -863 -3353 -2294 -5025 -287 -335 -685 -762
-685 -734 0 8 38 317 84 687 47 369 96 794 111 942 14 149 61 635 105 1080 96
988 97 999 111 1415 19 569 -5 871 -96 1224 -116 454 -347 834 -674 1108 -408
341 -956 556 -1699 663 -616 89 -1455 93 -2017 9 -1005 -149 -1722 -557 -2029
-1154 -164 -319 -213 -713 -135 -1093 83 -413 319 -760 697 -1027 458 -323
1071 -507 1862 -559 200 -14 737 -6 920 13 165 17 505 71 546 86 16 6 35 32
56 75 l32 65 -16 96 c-10 53 -24 104 -33 114 -8 9 -42 25 -74 35 -57 17 -64
17 -242 -4 -258 -30 -263 -30 -469 -41 -318 -16 -740 13 -1030 70 -610 121
-1084 414 -1293 800 -47 87 -94 224 -112 329 -20 111 -20 344 0 465 73 458
371 816 886 1065 324 157 694 247 1159 282 175 13 767 6 915 -10 389 -45 666
-109 920 -216 550 -230 875 -624 977 -1186 21 -114 23 -152 22 -469 0 -229 -6
-412 -17 -545 -9 -110 -120 -1394 -247 -2852 -126 -1459 -227 -2660 -223
-2668 8 -23 143 -135 170 -141 30 -8 39 -1 223 156 279 240 470 418 811 759
458 459 759 793 1142 1271 889 1107 1603 2292 2035 3375 364 913 691 2220 694
2775 1 146 -20 277 -50 319 -18 24 -115 61 -163 61 -19 0 -134 -88 -447 -340z"/>
</g>
</svg>
